<?xml version="1.0" encoding="utf-8"?>
<!-- Generator: Adobe Illustrator 24.0.3, SVG Export Plug-In . SVG Version: 6.00 Build 0)  -->
<svg version="1.1" id="Layer_1" xmlns="http://www.w3.org/2000/svg" xmlns:xlink="http://www.w3.org/1999/xlink" x="0px" y="0px"
	 viewBox="0 0 508.77 112.15" style="enable-background:new 0 0 508.77 112.15;" xml:space="preserve">
<style type="text/css">
	.st0{fill:#3B3D5D;}
	.st1{fill:#63B0D9;}
</style>
<g>
	<g>
		<g>
			<path class="st0" d="M289.5,37.07l14.22,30.43l14.22-30.43h16.96L307.7,91.07h-7.98l-27.18-53.99H289.5z"/>
			<path class="st0" d="M344.98,12.17c4.99,0,9.1,4.11,9.1,9.1s-4.11,9.1-9.1,9.1c-4.99,0-9.1-4.12-9.1-9.1
				S339.99,12.17,344.98,12.17z M352.59,37.07v53.99h-15.21V37.07H352.59z"/>
			<path class="st0" d="M412.57,75.98c-1.62,3.99-7.73,16.83-26.56,16.83c-8.73,0-15.34-2.49-20.7-7.61
				c-5.99-5.61-8.48-12.59-8.48-21.07c0-10.72,4.36-17.33,8.23-21.2c6.36-6.23,13.84-7.61,20.32-7.61c10.97,0,17.33,4.36,21.07,8.85
				c5.74,6.86,6.48,15.34,6.48,21.2v1.25h-40.4c0,3.24,0.87,6.73,2.62,9.1c1.62,2.24,4.99,5.11,10.85,5.11
				c5.74,0,10.1-2.74,12.59-7.11L412.57,75.98z M398.6,56.9c-1.25-7.36-7.23-10.85-12.84-10.85c-5.61,0-11.47,3.62-12.72,10.85
				H398.6z"/>
			<path class="st0" d="M442.61,91.07h-7.48L407.7,37.07h16.96l14.22,31.17l14.46-31.17h6.98l14.46,31.17L489,37.07h16.96
				l-27.43,53.99h-7.48l-14.22-31.8L442.61,91.07z"/>
		</g>
	</g>
	<g>
		<path class="st1" d="M35.73,49.92c-3.62-3.37-7.23-3.62-8.85-3.62c-3.62,0-5.86,1.75-5.86,4.36c0,1.37,0.62,3.49,4.86,4.86
			l3.62,1.12c4.24,1.37,10.6,3.49,13.72,7.73c1.62,2.25,2.74,5.49,2.74,8.98c0,4.86-1.62,9.73-5.99,13.72
			c-4.36,3.99-9.6,5.74-16.21,5.74c-11.22,0-17.58-5.36-20.95-8.98l7.98-9.23c2.99,3.49,7.48,6.23,11.97,6.23
			c4.24,0,7.48-2.12,7.48-5.86c0-3.37-2.74-4.74-4.74-5.49l-3.49-1.25c-3.87-1.37-8.35-3.12-11.6-6.48
			C7.92,59.14,6.3,55.78,6.3,51.41c0-5.24,2.49-9.6,5.61-12.22c4.24-3.37,9.73-3.87,14.09-3.87c3.99,0,10.35,0.5,17.21,5.74
			L35.73,49.92z"/>
		<path class="st1" d="M49.19,37.07h15.21v6.11c5.74-7.23,12.84-7.86,16.09-7.86c11.35,0,15.71,7.11,17.08,9.85
			c2.62-4.24,7.98-9.85,17.33-9.85c8.35,0,12.47,3.87,14.59,6.61c3.49,4.61,3.74,9.23,3.74,15.21v33.92h-15.21V61.64
			c0-6.36-1.37-9.23-2.49-10.6c-2-2.49-4.74-2.74-6.23-2.74c-4.12,0-6.73,1.87-8.35,4.74c-1.99,3.24-2.12,7.61-2.12,10.47v27.56
			H83.61V61.64c0-6.36-1.37-9.23-2.49-10.6c-2-2.49-4.74-2.74-6.23-2.74c-4.12,0-6.73,1.87-8.35,4.74
			c-1.99,3.24-2.12,7.61-2.12,10.47v27.56H49.19V37.07z"/>
		<path class="st1" d="M179.12,37.07h15.21v53.99h-15.21v-6.98c-5.49,7.86-12.72,8.73-16.58,8.73c-16.58,0-27.56-12.97-27.56-28.8
			c0-15.96,10.85-28.68,26.81-28.68c4.12,0,12.22,0.75,17.33,8.73V37.07z M150.69,64.01c0,8.6,6.23,15.34,14.96,15.34
			c8.73,0,14.96-6.73,14.96-15.34s-6.23-15.21-14.96-15.21C156.92,48.79,150.69,55.4,150.69,64.01z"/>
		<path class="st1" d="M198.82,37.07h15.21v8.11c2.37-4.61,5.61-6.86,6.73-7.48c2.37-1.5,5.36-2.37,8.98-2.37
			c2.62,0,4.74,0.62,6.48,1.25l-1.99,14.22c-2-1.37-3.99-1.99-7.11-1.99c-2.87,0-7.11,0.62-10.1,4.36
			c-2.87,3.62-2.99,8.23-2.99,11.97v25.94h-15.21V37.07z"/>
		<path class="st1" d="M260.29,50.04v41.03h-15.21V50.04h-5.99V37.07h5.99V18.62h15.21v18.46h10.47l7.02,12.97H260.29z"/>
	</g>
</g>
</svg>
